<svg id="6c5a453f-ac10-4e97-b5b6-4994a10d25aa" data-name="35c9ef45-9bb4-4ee9-bf2e-8063c3759cdc" xmlns="http://www.w3.org/2000/svg" viewBox="0 0 818.98 266.28"><title>logo</title><path d="M669.81,156.2a8.56,8.56,0,0,0,2.48-5.9V128.56a8,8,0,0,0-2.48-5.9l-40.4-40.54a12.86,12.86,0,0,0-18.18,0l-39.6,39.65a8.56,8.56,0,0,0-2.51,6.1v95.45a9.89,9.89,0,0,0,2.41,6.59l39.7,39.18a12.92,12.92,0,0,0,18.18,0l40.16-40.41a9.3,9.3,0,0,0,2.71-6.23V200.53a4.24,4.24,0,0,0-1.34-3.23,4.32,4.32,0,0,0-6.12,0l-36,35.79a4.49,4.49,0,0,1-3.14,1.26,4.41,4.41,0,0,1-4.48-4.32V210.16a12.58,12.58,0,0,1,3.68-9Zm-21.45-17.09a4.09,4.09,0,0,1-1.4,3.1L624,165.15a6.2,6.2,0,0,1-4.38,1.82,6.06,6.06,0,0,1-6-6.17V148.66l0-16.66V117.47a6.18,6.18,0,0,1,6.22-6.18,6.06,6.06,0,0,1,4.38,1.87l23,22.89a4.08,4.08,0,0,1,1.24,3.06" transform="translate(-1.85 -7)"/><path d="M412.7,269.09a12.88,12.88,0,0,1-18.15,0L355,229.41a8.62,8.62,0,0,1-2.64-6.08V127.88a8.7,8.7,0,0,1,2.64-6.1l39.6-39.65a12.82,12.82,0,0,1,18.15,0l39.53,39.68a8.92,8.92,0,0,1,2.51,6.07v95.45a8.91,8.91,0,0,1-2.51,6.08ZM429.18,138.2a8.72,8.72,0,0,0-2.57-6l-15.47-15.44a4.54,4.54,0,0,0-3.17-1.32,4.27,4.27,0,0,0-4.38,4.3V231.54a4.28,4.28,0,0,0,4.38,4.27,4.68,4.68,0,0,0,3.17-1.28L426.61,219a8.6,8.6,0,0,0,2.57-6V138.2Z" transform="translate(-1.85 -7)"/><path d="M90.2,103.63l17.71,17.81a4.27,4.27,0,0,1,0,6L90.2,145.36a4.21,4.21,0,0,1-6,0L66.45,127.56a4.22,4.22,0,0,1,0-6l17.74-17.86a4.31,4.31,0,0,1,6,0" transform="translate(-1.85 -7)"/><path d="M4.39,233.24a8.64,8.64,0,0,1-2.54-6V136.71a4,4,0,0,1,1-2.82L13.08,123.7a4.54,4.54,0,0,0,1.44-3V52.81a8.41,8.41,0,0,1,2.44-6l36-36.08a12.89,12.89,0,0,1,18.15,0l31.14,31.42a8.46,8.46,0,0,1,2.44,6l0,21.12a4.68,4.68,0,0,1-1.17,3.33,4.34,4.34,0,0,1-6.18,0L69.55,45.32a4.44,4.44,0,0,0-7.55,3V192.89A13.35,13.35,0,0,0,65.87,202l8.73,8.46a4.56,4.56,0,0,0,6.35-.16l21.08-21a4.25,4.25,0,0,1,6.18,0,4,4,0,0,1,.87,3.19v21.92a8,8,0,0,1-2.07,6L58.32,269.09a12.88,12.88,0,0,1-18.15,0Z" transform="translate(-1.85 -7)"/><path d="M129.37,162.08a13.57,13.57,0,0,1-3.81-9.17v-25a8.57,8.57,0,0,1,2.51-6.07L167.7,82a12.84,12.84,0,0,1,18.17,0l32.28,32.2a8.15,8.15,0,0,1,2.51,6v21.67a4.45,4.45,0,0,1-1.33,3.25,4.41,4.41,0,0,1-6.18,0l-25-24.69a4.06,4.06,0,0,0-5.89.1L170.4,132.37a4.27,4.27,0,0,0,0,6l51.53,51.7a8.7,8.7,0,0,1,2.47,6v25a13.19,13.19,0,0,1-3.81,9.19l-38,38.73a12.89,12.89,0,0,1-18.15,0l-40-40a8.21,8.21,0,0,1-2.47-6V201.38a4.55,4.55,0,0,1,1.27-3.24,4.39,4.39,0,0,1,6.22,0L162,230.61a4.28,4.28,0,0,0,6.08,0l11.76-11.81a4.23,4.23,0,0,0,0-6.1Z" transform="translate(-1.85 -7)"/><path d="M288.36,231.38a4.33,4.33,0,0,0,4.38,4.29,4.51,4.51,0,0,0,3.14-1.33l36.19-36.2a4.31,4.31,0,0,1,6.15,0,4.53,4.53,0,0,1,1.27,3.24v21.88a9.27,9.27,0,0,1-2.74,6.3l-39.33,39.53a12.88,12.88,0,0,1-18.15,0l-39.6-39.68a8.69,8.69,0,0,1-2.54-6.08V127.88a8.75,8.75,0,0,1,2.54-6.1l39.6-39.65a12.82,12.82,0,0,1,18.15,0l32.15,32.14a8.26,8.26,0,0,1,2.51,6v21.62a4.82,4.82,0,0,1-1.34,3.22,4.36,4.36,0,0,1-6.15,0l-28.7-28.74a4.42,4.42,0,0,0-7.52,3v112Z" transform="translate(-1.85 -7)"/><path d="M480.37,76.58a8.75,8.75,0,0,1,2.47-6.08l39.64-39.64a12.89,12.89,0,0,1,18.21,0l26.77,26.59a8.34,8.34,0,0,1,2.44,6V85.35a4.38,4.38,0,0,1-1.3,3.23,4.31,4.31,0,0,1-6.15,0l-23.36-23a4.42,4.42,0,0,0-3.17-1.32,4.31,4.31,0,0,0-4.38,4.28v42.9h21.28a4.24,4.24,0,0,1,4.28,4.24v17.12a4.27,4.27,0,0,1-4.28,4.28H531.53V264.72a8.15,8.15,0,0,1-2.47,6,8.46,8.46,0,0,1-12,.13L482.84,236.6a8.63,8.63,0,0,1-2.54-6.12V137h-8.45a4.24,4.24,0,0,1-4.24-4.27V115.64a4.2,4.2,0,0,1,4.24-4.19h8.45Z" transform="translate(-1.85 -7)"/><path d="M697.95,76.58a8.71,8.71,0,0,1,2.44-6.08l34.18-34.23a8.55,8.55,0,0,1,12.1.12,8.2,8.2,0,0,1,2.47,6v69.15h21.66a4.26,4.26,0,0,1,4.28,4.31v16.91a4.31,4.31,0,0,1-4.28,4.35H749.14V264.72a8.32,8.32,0,0,1-2.51,6,8.54,8.54,0,0,1-12.1.13L700.39,236.6a8.38,8.38,0,0,1-2.44-6.12V137.05l-8.45,0a4.23,4.23,0,0,1-4.21-4.27V115.64a4.19,4.19,0,0,1,4.21-4.19h8.45V76.58Z" transform="translate(-1.85 -7)"/><path d="M778.72,250.7A19.23,19.23,0,1,1,798,270a19.11,19.11,0,0,1-19.23-19.29m-3.65,0A22.88,22.88,0,1,0,798,227.88a22.62,22.62,0,0,0-22.88,22.82m18.05-9.83h5.68c2.81,0,5.92.43,5.92,4.09,0,4.16-3.41,4.34-7.08,4.34h-4.52v-8.43Zm-3.65,23h3.65V252.59h4.71l7.2,11.29h4l-7.56-11.6c3.9-.42,6.95-2.43,6.95-7.13,0-5.25-3-7.56-9.27-7.56h-9.64v26.3Z" transform="translate(-1.85 -7)"/></svg>